<?xml version="1.0" encoding="UTF-8"?>
<svg width="58px" height="67px" viewBox="0 0 58 67" version="1.1" xmlns="http://www.w3.org/2000/svg" xmlns:xlink="http://www.w3.org/1999/xlink">
    <title>Group</title>
    <g id="Page-1" stroke="none" stroke-width="1" fill="none" fill-rule="evenodd">
        <g id="Artist-Profile-Desktop" transform="translate(-51.000000, -17.000000)">
            <g id="Top-Bar">
                <g id="Logo" transform="translate(51.000000, 17.000000)">
                    <g id="Group">
                        <path d="M28.9997501,0 C11.6851831,0 7.10542736e-15,5.31667325 7.10542736e-15,23.0746994 C7.10542736e-15,41.305046 18.625307,67 28.9997501,67 C39.4671747,67 58,41.1859436 58,23.0746994 C58,5.37545776 46.3713056,0 28.9997501,0 Z" id="Path" fill="#FFB400" fill-rule="nonzero"></path>
                        <path d="M35.8168292,35.9475393 C37.8082058,35.8941964 39.5525552,34.5218298 40.0722678,32.6836074 C40.9545083,29.5625326 39.0393162,26.7475234 35.8652241,26.6891722 C35.1467211,26.6759756 34.4278234,26.6807455 33.7091625,26.6872643 C33.2923187,26.6910007 33.0931337,26.5414657 33.1041863,26.0775179 C33.130318,24.9739325 33.1168969,23.8693137 33.1083706,22.7651719 C33.10616,22.4893948 33.1497392,22.319588 33.4863721,22.336839 C35.0224574,22.4156211 36.5644638,22.2052705 38.0981807,22.5398758 C39.5293445,22.8522218 40.7675602,23.4905873 41.8558542,24.4587088 C43.2112282,25.6644485 44.0781528,27.1745844 44.4965756,28.9278239 C44.7807084,30.1190951 44.8253138,31.334772 44.6307867,32.5618171 C44.3719962,34.1946178 43.8330992,35.6979169 42.7847527,36.9860956 C41.5638266,38.4862944 40.0541888,39.5238967 38.1510757,39.9759199 C37.3775461,40.1595593 36.6127009,40.2873914 35.8211713,40.2595673 C35.8196713,38.8221716 35.8182502,37.3848555 35.8168292,35.9475393 Z M28.9488548,21.7389431 C28.480849,21.4006781 28.01125,21.0683309 27.4779225,20.8421108 C27.1014467,20.6823285 26.9536764,20.4527154 26.9612441,20.0205536 C26.9914355,18.297351 26.9828321,16.5732015 26.9649085,14.8496833 C26.9609686,14.4746486 27.0854349,14.3513204 27.4561752,14.3555812 C28.6342753,14.3691529 29.8126143,14.3612624 30.9908737,14.3532158 C31.2673756,14.3514782 31.435539,14.4113669 31.4351407,14.7377962 C31.4318746,17.772555 31.4378492,20.8073926 31.4400805,23.8421514 C31.4401593,23.913797 31.4296441,23.9862316 31.2946195,24.0368096 C30.6307283,23.1748532 29.8538785,22.3929852 28.9488548,21.7389431 Z" id="Combined-Shape" fill="#000000"></path>
                        <path d="M13.7053914,31.7146609 C13.7049206,31.1670703 13.7045282,30.6193999 13.7040573,30.0718093 C14.0858631,26.1237124 16.4351659,22.9350092 20.14037,21.9808971 C23.5174487,21.1113306 26.5820979,21.8084527 29.0334249,24.4485275 C30.6492524,26.1887782 31.3945782,28.3419372 31.4112945,30.7261397 C31.4258918,32.81567 32.303849,34.3449957 34.0906063,35.3429374 C34.6263901,35.6421603 35.2253505,35.7148903 35.8247818,35.7650268 C35.9752282,35.9229411 35.981742,36.1256431 35.9835471,36.3249121 C35.9928077,37.3947854 35.9927293,38.4647386 35.9834686,39.5345321 C35.9816636,39.7330028 35.9802509,39.9370619 35.8290197,40.0954552 C34.3070545,40.0960939 32.8607441,39.7735591 31.4631698,39.0001942 C31.3463129,40.0128256 31.2788985,40.990569 31.0085344,41.9390926 C30.0712462,45.2269513 27.9930922,47.3227886 24.7116024,48.0707659 C22.2886852,48.6230667 19.921175,48.3447607 17.7206705,47.1109056 C15.9974822,46.1447383 14.7627543,44.7426702 14.196991,42.7814353 C14.0755038,42.3603837 14.0558837,42.1521731 14.6119155,42.1700563 C15.9154705,42.2118101 17.221223,42.1804349 18.5260337,42.1880192 C18.6868395,42.1889772 18.8715817,42.1074654 18.9947955,42.3314035 C19.5226529,43.2913436 20.4349845,43.6357532 21.4195177,43.7711539 C22.6104538,43.9348164 23.8064125,43.9083111 24.894932,43.2917427 C26.1597178,42.5753803 26.6990333,41.3693877 26.907555,39.9831269 C27.1331069,38.4831007 26.9811694,36.9699816 27.0033008,35.4630098 C27.0262955,33.9003129 27.0386168,32.3356201 26.9877617,30.7741208 C26.9338459,29.1161803 26.2746912,27.7261673 24.9039572,26.7816354 C22.8777571,25.3856347 20.3243275,25.9535833 18.9904006,28.0981999 C18.009085,29.675826 17.7870647,31.3471788 18.6592145,33.0635587 C19.2746557,34.2749801 20.3120061,34.9136628 21.590369,35.1875779 C22.629446,35.4101588 23.6844544,35.2963934 24.7316148,35.2999062 C25.1464608,35.3013432 25.2315333,35.4217349 25.2223511,35.8193947 C25.1954324,36.9830746 25.2152094,38.1477923 25.2123057,39.3121109 C25.2118348,39.4785675 25.2795631,39.6987534 24.9807108,39.688295 C23.2619958,39.6280991 21.531195,39.8493229 19.8316292,39.3778952 C16.6666823,38.5002653 14.728223,36.4232692 13.9436571,33.207422 C13.8246812,32.7198676 13.7828513,32.2127535 13.7053914,31.7146609" id="Fill-3" fill="#FFFFFF"></path>
                    </g>
                </g>
            </g>
        </g>
    </g>
</svg>